<svg width="22" height="15" viewBox="0 0 22 15" fill="none" xmlns="http://www.w3.org/2000/svg">
<path d="M14.235 14.0727C13.8925 14.0727 13.6641 13.9589 13.4358 13.7312C12.9791 13.2758 12.9791 12.5928 13.4358 12.1374L19.1445 6.44553C19.6012 5.99018 20.2863 5.99018 20.743 6.44553C21.1997 6.90089 21.1997 7.58392 20.743 8.03927L15.0342 13.7312C14.8059 13.9589 14.5775 14.0727 14.235 14.0727Z" fill="white"/>
<path d="M19.9438 8.38079C19.6012 8.38079 19.3729 8.26695 19.1445 8.03927L13.4358 2.34736C12.9791 1.89201 12.9791 1.20898 13.4358 0.753624C13.8925 0.298271 14.5775 0.298271 15.0342 0.753624L20.743 6.44554C21.1997 6.90089 21.1997 7.58392 20.743 8.03927C20.5146 8.26695 20.2863 8.38079 19.9438 8.38079Z" fill="white"/>
<path d="M19.9436 8.38078H1.67551C0.990455 8.38078 0.533752 7.92543 0.533752 7.2424C0.533752 6.55937 0.990455 6.10402 1.67551 6.10402H19.9436C20.6287 6.10402 21.0854 6.55937 21.0854 7.2424C21.0854 7.92543 20.6287 8.38078 19.9436 8.38078Z" fill="white"/>
</svg>