<svg width="20" height="20" viewBox="0 0 20 20" fill="none" xmlns="http://www.w3.org/2000/svg">
<g clip-path="url(#clip0_0_34)">
<path d="M10.155 0.191734C8.17723 0.191734 6.24384 0.778224 4.59935 1.87704C2.95485 2.97585 1.67313 4.53764 0.916254 6.3649C0.159377 8.19216 -0.0386559 10.2028 0.347196 12.1426C0.733048 14.0824 1.68546 15.8643 3.08398 17.2628C4.48251 18.6613 6.26434 19.6137 8.20415 19.9996C10.144 20.3854 12.1546 20.1874 13.9819 19.4305C15.8091 18.6736 17.3709 17.3919 18.4697 15.7474C19.5686 14.1029 20.155 12.1695 20.155 10.1917C20.155 7.53957 19.1015 4.99603 17.2261 3.12067C15.3508 1.2453 12.8072 0.191734 10.155 0.191734V0.191734ZM15.8384 7.77923L9.56338 14.8959C9.46212 15.01 9.33932 15.1029 9.20203 15.1694C9.06474 15.2359 8.91568 15.2747 8.76338 15.2834H8.68838C8.40415 15.2851 8.12942 15.1812 7.91755 14.9917L4.55921 12.0126C4.32826 11.8076 4.18819 11.5192 4.16982 11.211C4.15146 10.9027 4.25631 10.5998 4.4613 10.3688C4.66629 10.1379 4.95463 9.99779 5.26289 9.97943C5.57116 9.96106 5.87409 10.0659 6.10505 10.2709L8.60505 12.4751L14.1092 6.22507C14.3137 5.99355 14.6017 5.85274 14.9099 5.83359C15.2182 5.81445 15.5215 5.91855 15.753 6.12298C15.9845 6.32742 16.1253 6.61545 16.1444 6.92372C16.1636 7.23198 16.0595 7.53522 15.855 7.76673L15.8384 7.77923Z" fill="#1987FF"/>
</g>
<defs>
<clipPath id="clip0_0_34">
<rect width="19.6163" height="19.6163" fill="white" transform="translate(0.154846 0.191853)"/>
</clipPath>
</defs>
</svg>
