<svg width="23" height="22" viewBox="0 0 23 22" fill="none" xmlns="http://www.w3.org/2000/svg">
<path d="M19.4523 3.05176e-05C20.8361 3.05176e-05 21.9521 1.00804 22.0181 2.19424V21.2772L19.3834 19.2621L17.9367 18.0759L16.358 16.8365L17.0175 18.7913H3.20149C1.82166 18.7913 0.70166 17.8472 0.70166 16.5962V2.19867C0.70166 1.01247 1.82363 0.00269017 3.20641 0.00269017H19.4454L19.4523 3.05176e-05ZM13.4311 5.03829H13.4016L13.2028 5.2156C15.243 5.74753 16.2301 6.57823 16.2301 6.57823C14.9152 5.98601 13.7303 5.6899 12.5453 5.57022C11.6891 5.45054 10.8328 5.51348 10.1095 5.57022H9.91263C9.45007 5.57022 8.46588 5.74753 7.14708 6.22183C6.68746 6.4018 6.4237 6.51971 6.4237 6.51971C6.4237 6.51971 7.40985 5.63139 9.58293 5.15709L9.45007 5.0374C9.45007 5.0374 7.80451 4.98067 6.02806 6.16332C6.02806 6.16332 4.25161 8.95063 4.25161 12.3869C4.25161 12.3869 5.23579 13.9295 7.93541 13.988C7.93541 13.988 8.32908 13.5155 8.72768 13.0997C7.21203 12.6848 6.62152 11.855 6.62152 11.855C6.62152 11.855 6.7534 11.9135 6.95122 12.0323H7.01028C7.0398 12.0323 7.05358 12.0456 7.06933 12.0589V12.0642C7.08507 12.0784 7.09885 12.0908 7.12838 12.0908C7.45316 12.2114 7.77794 12.3302 8.04367 12.4454C8.61197 12.6645 9.20639 12.824 9.8152 12.9206C10.7305 13.0403 11.7796 13.0979 12.9744 12.9206C13.5649 12.8009 14.1554 12.6839 14.746 12.4463C15.1298 12.269 15.6022 12.0917 16.1209 11.7929C16.1209 11.7929 15.5304 12.6227 13.9507 13.0376C14.2755 13.4508 14.7332 13.9242 14.7332 13.9242C17.4338 13.871 18.4829 12.3284 18.542 12.394C18.542 8.96305 16.7557 6.17041 16.7557 6.17041C15.1465 5.09414 13.6407 5.05336 13.375 5.05336L13.4301 5.03563L13.4311 5.03829ZM13.5964 8.95063C14.2883 8.95063 14.8463 9.48256 14.8463 10.1342C14.8463 10.7902 14.2854 11.3222 13.5964 11.3222C12.9075 11.3222 12.3465 10.7902 12.3465 10.1395C12.3485 9.48345 12.9105 8.95329 13.5964 8.95329V8.95063ZM9.12529 8.95063C9.81421 8.95063 10.3713 9.48256 10.3713 10.1342C10.3713 10.7902 9.81028 11.3222 9.12135 11.3222C8.43242 11.3222 7.87144 10.7902 7.87144 10.1395C7.87144 9.48345 8.43242 8.95329 9.12135 8.95329L9.12529 8.95063Z" fill="white"/>
</svg>
