<svg width="19" height="19" viewBox="0 0 19 19" fill="none" xmlns="http://www.w3.org/2000/svg">
<path d="M2.1537 8.38445C7.65755 5.47578 14.78 1.9295 15.7631 1.43867C18.3421 0.153996 19.1334 0.400199 18.7388 3.24522C18.4555 5.29007 17.6379 12.0601 16.9862 16.274C16.5995 18.7729 15.732 19.069 14.3679 17.988C13.7119 17.4677 10.4007 14.8373 9.68208 14.2197C9.02607 13.6568 8.12131 12.9797 9.25598 11.6461C9.65974 11.1711 12.3066 8.13509 14.3688 5.77196C14.639 5.46157 14.2996 4.9518 13.9878 5.20064C11.2082 7.41489 7.3545 10.4882 6.86403 10.8886C6.12306 11.493 5.41143 11.7703 4.134 11.3294C3.16881 10.9964 2.22596 10.5992 1.85898 10.4477C0.445795 9.86482 0.781245 9.1099 2.1537 8.38445Z" fill="white"/>
</svg>
