<svg width="22" height="18" viewBox="0 0 22 18" fill="none" xmlns="http://www.w3.org/2000/svg">
<path d="M18.5978 2.77665C19.5012 2.23656 20.1772 1.38612 20.4995 0.38412C19.6506 0.887823 18.7218 1.24265 17.7532 1.43324C16.4104 0.0127713 14.2829 -0.332907 12.5594 0.589365C10.836 1.51164 9.94326 3.47354 10.3801 5.3788C6.90283 5.20422 3.66309 3.56164 1.46712 0.859804C0.321084 2.83653 0.906733 5.36346 2.80548 6.63453C2.11888 6.61245 1.4475 6.42655 0.84732 6.09233C0.84732 6.11047 0.84732 6.12861 0.84732 6.14675C0.847717 8.20585 2.29893 9.97951 4.31719 10.3876C3.68032 10.5609 3.01229 10.5864 2.36407 10.4622C2.93166 12.2231 4.55458 13.4294 6.40436 13.4654C4.87232 14.6679 2.98031 15.32 1.03276 15.3168C0.687553 15.3173 0.342622 15.2974 -0.000244141 15.2573C1.97746 16.5282 4.27927 17.2027 6.63011 17.2004C9.90068 17.2228 13.0438 15.9334 15.3564 13.6206C17.669 11.3079 18.9581 8.16462 18.9354 4.89405C18.9354 4.70659 18.931 4.52015 18.9223 4.33471C19.7693 3.72258 20.5003 2.96425 21.081 2.09537C20.2919 2.44514 19.4549 2.67478 18.5978 2.77665Z" fill="white"/>
</svg>
